<?xml version="1.0" standalone="no"?>
<!DOCTYPE svg PUBLIC "-//W3C//DTD SVG 20010904//EN"
 "http://www.w3.org/TR/2001/REC-SVG-20010904/DTD/svg10.dtd">
<svg version="1.0" xmlns="http://www.w3.org/2000/svg"
 width="572.000000pt" height="640.000000pt" viewBox="0 0 572.000000 640.000000"
 preserveAspectRatio="xMidYMid meet">

<g transform="translate(0.000000,640.000000) scale(0.100000,-0.100000)"
fill="#000000" stroke="none">
<path d="M1928 5362 c-460 -207 -836 -378 -834 -379 1 -1 85 29 187 68 930
355 1477 561 1494 560 11 0 386 -140 834 -310 448 -171 816 -310 817 -308 2 2
-61 32 -139 66 -78 35 -451 203 -829 372 -377 170 -688 309 -690 308 -1 0
-380 -170 -840 -377z"/>
<path d="M2760 4571 c-118 -38 -232 -116 -223 -152 5 -17 10 -15 50 22 75 69
210 119 321 119 67 0 172 -31 238 -71 292 -176 304 -610 22 -799 -241 -161
-569 -73 -693 185 -18 39 -36 90 -40 115 -9 56 -45 110 -96 146 -22 15 -37 29
-35 32 8 8 104 -58 127 -86 l20 -27 -5 54 c-6 64 -37 102 -95 120 -42 12 -121
15 -169 5 l-30 -6 27 -42 c16 -22 40 -60 56 -83 35 -54 69 -76 121 -77 42 -1
42 -1 49 -46 22 -144 134 -287 280 -356 168 -80 354 -65 504 40 261 181 296
552 73 774 -65 65 -170 124 -250 141 -77 16 -189 13 -252 -8z"/>
<path d="M2413 4478 c-23 -45 -28 -65 -27 -128 0 -73 23 -150 45 -150 5 0 10
26 10 58 l2 57 11 -59 c9 -47 13 -56 23 -45 41 50 48 178 13 251 -35 76 -45
78 -77 16z"/>
<path d="M2544 4256 c-48 -21 -74 -61 -74 -114 l0 -45 20 25 c22 28 118 93
126 86 2 -3 -14 -18 -37 -34 -51 -35 -94 -95 -76 -106 22 -14 88 -8 119 10 16
9 56 56 88 105 l59 87 -97 0 c-58 -1 -109 -6 -128 -14z"/>
<path d="M1187 3214 c-4 -4 -7 -286 -7 -626 l0 -618 205 0 205 0 0 80 0 80
-120 0 -120 0 2 248 3 247 115 5 115 5 3 74 c2 53 -1 77 -10 83 -7 4 -56 8
-108 8 -52 -1 -101 -1 -107 -1 -10 1 -13 33 -13 126 l0 124 118 3 117 3 0 80
0 80 -196 3 c-107 1 -198 -1 -202 -4z"/>
<path d="M1923 3208 c-6 -7 -18 -67 -27 -133 -10 -66 -21 -145 -26 -175 -5
-30 -14 -89 -20 -130 -6 -41 -16 -102 -21 -135 -5 -33 -14 -91 -19 -130 -24
-159 -29 -192 -60 -395 -5 -30 -12 -74 -16 -98 l-7 -43 84 3 84 3 7 45 c4 25
12 86 18 135 7 50 18 124 24 165 l12 75 82 3 c77 3 83 2 92 -20 5 -13 21 -106
36 -208 14 -102 28 -188 31 -192 2 -5 40 -8 85 -8 l81 0 -7 33 c-4 17 -16 84
-27 147 -11 63 -24 138 -29 165 -11 59 -42 238 -69 398 -52 300 -82 474 -87
490 -5 15 -19 17 -108 17 -71 0 -107 -4 -113 -12z m152 -424 c14 -91 25 -178
25 -194 0 -30 -1 -30 -55 -30 -39 0 -57 4 -61 14 -3 8 4 81 15 163 11 81 24
173 27 202 10 76 18 49 49 -155z"/>
<path d="M2520 2596 l0 -626 80 0 80 0 0 124 c0 101 3 125 15 130 21 7 36 -20
81 -146 l38 -108 88 0 c48 0 88 1 88 3 0 1 -12 34 -26 72 -14 39 -37 102 -52
142 l-25 72 40 44 c59 63 66 120 62 465 l-4 277 -28 58 c-22 44 -39 63 -75 84
-44 26 -54 28 -204 31 l-158 4 0 -626z m284 438 c14 -13 16 -56 16 -310 0
-283 -1 -295 -21 -315 -16 -16 -30 -19 -67 -17 l-47 3 -3 328 -2 327 54 0 c36
0 60 -5 70 -16z"/>
<path d="M3134 3207 c-3 -8 -4 -45 -2 -83 l3 -69 113 -3 112 -3 0 -539 0 -540
85 0 85 0 0 540 0 539 103 3 102 3 0 80 0 80 -298 3 c-244 2 -298 0 -303 -11z"/>
<path d="M3897 3214 c-4 -4 -7 -286 -7 -626 l0 -618 80 0 80 0 2 328 3 327 70
0 70 0 5 -325 5 -325 80 0 80 0 0 620 0 620 -80 0 -80 0 -3 -207 c-2 -156 -5
-208 -15 -209 -6 0 -39 -1 -72 -1 l-60 0 -5 208 -5 209 -70 3 c-39 1 -74 0
-78 -4z"/>
<path d="M3615 1228 c-456 -237 -835 -431 -841 -431 -6 0 -300 140 -655 310
-354 171 -734 355 -844 408 -110 53 -195 92 -190 87 6 -5 388 -217 849 -470
l839 -462 31 19 c17 10 391 229 831 486 726 425 829 486 815 485 -3 -1 -378
-195 -835 -432z"/>
</g>
</svg>
