<?xml version="1.0" standalone="no"?>
<!DOCTYPE svg PUBLIC "-//W3C//DTD SVG 20010904//EN"
 "http://www.w3.org/TR/2001/REC-SVG-20010904/DTD/svg10.dtd">
<svg version="1.0" xmlns="http://www.w3.org/2000/svg"
 width="530.000000pt" height="471.000000pt" viewBox="0 0 530.000000 471.000000"
 preserveAspectRatio="xMidYMid meet">

<g transform="translate(0.000000,471.000000) scale(0.100000,-0.100000)"
fill="#000000" stroke="none">
<path d="M2055 4164 c-335 -129 -647 -249 -693 -266 -137 -50 -87 -41 88 17
91 29 403 131 693 225 l528 171 622 -201 c342 -111 641 -209 665 -217 23 -9
45 -14 47 -11 3 2 -102 45 -233 96 -461 177 -1103 422 -1105 421 -1 0 -276
-106 -612 -235z"/>
<path d="M2667 3534 c-4 -4 -7 -25 -7 -46 0 -21 -3 -38 -7 -38 -3 0 -22 12
-40 26 -27 20 -37 24 -46 14 -9 -9 0 -22 41 -58 29 -26 52 -55 52 -64 0 -24
-5 -23 -44 7 -72 55 -77 16 -6 -44 l50 -42 0 -74 0 -75 -48 -24 -49 -25 -58
59 -58 59 6 65 c6 61 5 66 -13 66 -15 0 -20 -7 -21 -27 0 -16 -4 -36 -8 -46
-6 -17 -8 -18 -20 -3 -10 12 -12 34 -7 81 6 61 5 65 -14 65 -16 0 -20 -7 -20
-32 0 -55 -12 -62 -45 -28 -16 16 -35 30 -42 30 -22 0 -15 -35 12 -60 33 -31
32 -40 -7 -40 -40 0 -63 -13 -53 -30 5 -9 26 -10 73 -5 49 5 67 4 73 -7 15
-22 10 -28 -23 -28 -40 0 -63 -13 -53 -30 5 -9 25 -10 70 -5 l63 6 61 -62 c56
-57 61 -67 61 -106 l0 -43 -84 0 -84 0 -42 50 c-23 28 -46 50 -51 50 -17 0 -9
-31 17 -66 l26 -34 -24 0 c-18 0 -36 14 -64 50 -21 27 -43 49 -47 50 -21 1
-16 -33 9 -62 l27 -33 -47 -3 c-38 -3 -47 -6 -44 -20 2 -12 15 -18 46 -20 l42
-3 -26 -34 c-17 -23 -24 -41 -19 -52 6 -15 14 -9 53 35 31 34 55 52 70 52 l23
0 -27 -35 c-17 -23 -24 -41 -19 -52 5 -15 14 -9 53 35 l47 52 83 0 82 0 0 -42
c0 -39 -6 -48 -62 -105 l-61 -62 -69 6 c-58 5 -68 4 -68 -10 0 -11 13 -18 45
-23 25 -3 45 -9 45 -13 0 -21 -27 -28 -91 -23 -57 4 -69 2 -69 -10 0 -17 29
-28 74 -28 l30 0 -32 -33 c-33 -34 -42 -67 -19 -67 7 0 26 14 42 30 33 34 45
27 45 -28 0 -27 4 -33 18 -30 14 3 16 13 14 66 -3 41 0 68 9 78 12 14 14 14
20 -3 4 -10 8 -31 8 -46 1 -22 5 -28 19 -25 14 3 17 13 14 68 -3 74 -6 68 69
138 l56 52 41 -30 42 -30 0 -73 0 -72 -52 -47 c-41 -35 -50 -49 -41 -58 9 -10
19 -6 46 14 40 31 47 32 47 7 0 -11 -21 -35 -50 -57 -48 -36 -60 -57 -41 -68
4 -3 23 6 41 19 19 14 38 25 42 25 4 0 8 -18 8 -40 0 -60 22 -51 72 33 64 105
74 108 180 62 48 -20 92 -34 97 -31 7 5 8 45 4 115 l-6 109 49 10 c27 6 75 15
107 22 31 6 57 16 57 22 0 6 -27 51 -60 99 -33 48 -60 94 -60 101 0 8 27 54
61 102 33 48 59 93 56 99 -3 7 -45 20 -93 30 -58 11 -94 23 -102 34 -11 14
-12 41 -7 116 7 116 9 114 -108 63 -46 -20 -87 -32 -99 -28 -12 3 -37 32 -57
65 -46 76 -74 110 -84 101z m90 -170 c39 -42 76 -44 151 -9 30 14 58 25 63 25
6 0 7 -33 3 -79 -7 -79 -6 -80 23 -109 21 -21 46 -33 89 -41 32 -7 64 -14 71
-16 8 -3 -7 -32 -39 -79 -66 -97 -66 -115 0 -211 59 -83 62 -76 -48 -95 -113
-19 -104 -8 -97 -127 5 -79 3 -104 -6 -100 -133 57 -138 58 -174 46 -25 -8
-43 -25 -66 -63 l-32 -51 -3 99 c-3 112 0 126 25 126 31 0 116 46 152 81 80
80 100 206 48 312 -41 82 -92 118 -214 153 -10 2 -13 33 -13 111 1 105 1 107
18 84 9 -13 31 -39 49 -57z m19 -203 c49 -23 107 -88 122 -140 35 -116 -23
-239 -135 -286 -77 -32 -73 -43 -73 215 l0 230 23 0 c12 0 40 -9 63 -19z
m-116 -206 c0 -74 -3 -135 -7 -135 -5 0 -23 9 -40 20 l-33 20 0 100 c0 98 0
100 28 114 51 28 52 27 52 -119z"/>
<path d="M3305 2097 c-3 -6 -4 -161 -3 -342 l3 -330 42 -3 43 -3 2 253 3 253
33 -225 c18 -124 36 -238 38 -253 6 -28 7 -28 72 -25 l67 3 3 343 2 342 -40 0
-40 0 -1 -47 c0 -27 -2 -61 -3 -78 -1 -16 -3 -104 -4 -194 -1 -90 -4 -162 -6
-160 -2 2 -19 107 -36 234 -17 126 -34 233 -36 237 -9 14 -134 9 -139 -5z"/>
<path d="M1310 1765 l0 -335 40 0 40 0 0 174 c0 171 0 174 22 179 12 4 33 4
45 1 23 -6 23 -7 23 -180 l0 -174 43 0 42 0 -2 223 c-1 122 -2 273 -2 335 l-1
112 -40 0 -39 0 -3 -112 -3 -113 -40 0 -40 0 -3 113 -3 112 -39 0 -40 0 0
-335z"/>
<path d="M1745 2088 c-3 -11 -66 -435 -91 -610 l-6 -48 44 0 45 0 14 113 14
112 44 3 c28 2 47 -1 52 -9 4 -7 13 -59 20 -116 l13 -103 46 0 46 0 -42 243
c-24 133 -50 284 -59 335 l-17 92 -59 0 c-39 0 -61 -4 -64 -12z m99 -295 l6
-43 -35 0 c-19 0 -35 4 -35 10 0 17 21 164 27 190 6 24 15 -14 37 -157z"/>
<path d="M2070 1759 l0 -340 43 3 42 3 3 73 c4 89 17 91 46 6 28 -81 31 -84
77 -84 47 0 48 5 14 95 l-25 67 25 30 c25 29 25 31 25 225 l0 195 -34 34 c-34
34 -35 34 -125 34 l-91 0 0 -341z m160 76 l0 -175 -35 0 -35 0 0 175 0 175 35
0 35 0 0 -175z"/>
<path d="M2420 1765 l0 -335 45 0 45 0 0 247 c0 135 3 244 6 240 4 -3 23 -113
43 -244 l37 -238 42 -3 c28 -2 43 1 46 10 2 7 18 108 36 223 18 116 36 224 40
240 5 17 9 -75 9 -222 l1 -253 45 0 45 0 0 335 0 335 -80 0 c-44 0 -80 -1 -81
-2 0 -2 -13 -82 -28 -178 -16 -96 -31 -168 -34 -160 -4 8 -15 78 -27 155 -30
206 -17 185 -110 185 l-80 0 0 -335z"/>
<path d="M3006 2079 c-53 -42 -56 -59 -56 -309 0 -252 5 -279 56 -319 24 -19
38 -22 83 -19 47 4 59 10 82 37 34 42 39 85 36 336 -3 214 -9 245 -59 279 -33
23 -109 21 -142 -5z m98 -81 c13 -19 16 -58 16 -231 0 -124 -4 -216 -10 -228
-13 -23 -55 -25 -64 -3 -3 9 -6 114 -6 234 0 185 2 221 16 234 21 21 30 20 48
-6z"/>
<path d="M3715 2088 c2 -7 29 -102 60 -210 53 -192 55 -201 55 -323 l0 -125
45 0 45 0 0 134 0 134 60 195 c33 107 60 197 60 201 0 3 -20 6 -44 6 -50 0
-46 5 -92 -144 -17 -55 -29 -83 -34 -75 -5 7 -21 59 -36 116 l-27 103 -48 0
c-34 0 -47 -4 -44 -12z"/>
<path d="M3940 1115 c-52 -24 -214 -96 -360 -160 -146 -64 -407 -179 -580
-256 -173 -76 -321 -139 -329 -139 -11 0 -979 396 -1326 542 -38 16 -65 25
-60 20 9 -9 1307 -622 1365 -645 22 -8 107 32 715 336 644 323 804 407 575
302z"/>
</g>
</svg>
