<?xml version="1.0" standalone="no"?>
<!DOCTYPE svg PUBLIC "-//W3C//DTD SVG 20010904//EN"
 "http://www.w3.org/TR/2001/REC-SVG-20010904/DTD/svg10.dtd">
<svg version="1.0" xmlns="http://www.w3.org/2000/svg"
 width="868.000000pt" height="265.000000pt" viewBox="0 0 868.000000 265.000000"
 preserveAspectRatio="xMidYMid meet">

<g transform="translate(0.000000,265.000000) scale(0.100000,-0.100000)"
fill="#000000" stroke="none">
<path d="M1022 2084 c-19 -13 -22 -24 -22 -80 l0 -64 -150 0 c-94 0 -159 -4
-175 -12 -39 -17 -55 -58 -55 -134 0 -62 2 -68 35 -101 l35 -35 0 -493 0 -494
26 -20 c26 -21 34 -21 713 -21 678 0 688 0 709 20 l22 21 0 494 0 495 23 15
c34 22 47 57 47 126 0 65 -10 94 -44 121 -18 15 -44 18 -172 18 l-152 0 -4 61
c-6 86 -23 99 -134 99 -108 0 -124 -13 -124 -100 l0 -60 -175 0 -175 0 0 64
c0 85 -14 96 -125 96 -57 0 -87 -5 -103 -16z m179 -41 c0 -5 2 -35 5 -68 2
-33 2 -75 -1 -92 l-6 -33 -74 0 -75 0 0 100 0 100 75 0 c41 0 75 -3 76 -7z
m604 -93 l0 -95 -77 -3 -78 -3 0 101 0 101 78 -3 77 -3 0 -95z m-804 -88 c11
-52 21 -57 124 -57 103 0 113 5 124 57 l7 33 167 3 c129 2 168 0 171 -10 3 -7
7 -25 10 -39 8 -35 44 -49 124 -49 85 0 114 15 126 63 l10 37 136 0 c174 0
180 -3 180 -100 0 -58 -3 -71 -19 -80 -13 -7 -262 -10 -740 -10 -641 0 -721 2
-735 16 -11 11 -16 35 -16 79 0 92 8 96 185 93 l139 -3 7 -33z m1117 -672 c1
-256 0 -475 -3 -488 l-5 -22 -683 2 -682 3 -3 488 -2 487 687 -2 688 -3 3
-465z"/>
<path d="M1404 1547 c-3 -8 -4 -34 -2 -58 2 -36 7 -44 23 -44 18 0 20 7 20 55
0 44 -3 55 -18 58 -9 2 -20 -3 -23 -11z"/>
<path d="M1160 1402 c0 -20 29 -52 48 -52 20 0 24 21 8 45 -20 30 -56 34 -56
7z"/>
<path d="M1642 1397 c-25 -27 -16 -53 17 -42 24 7 45 40 36 55 -10 16 -30 11
-53 -13z"/>
<path d="M1356 1366 c-91 -34 -145 -102 -153 -194 -18 -197 204 -314 366 -194
67 50 100 176 68 255 -46 109 -178 171 -281 133z m131 -47 c34 -13 80 -55 99
-91 17 -32 18 -105 3 -145 -64 -170 -338 -118 -339 65 0 125 123 214 237 171z"/>
<path d="M1024 1165 c-10 -25 6 -35 56 -35 49 0 70 16 47 39 -17 17 -96 14
-103 -4z"/>
<path d="M1727 1174 c-4 -4 -7 -16 -7 -26 0 -15 8 -18 56 -18 52 0 55 1 52 23
-3 19 -10 22 -48 25 -25 2 -49 0 -53 -4z"/>
<path d="M1172 938 c-15 -15 -16 -45 -1 -54 6 -3 22 5 36 19 14 14 22 30 19
36 -9 15 -39 14 -54 -1z"/>
<path d="M1624 939 c-4 -8 4 -22 20 -36 22 -19 31 -21 42 -12 12 10 13 15 1
33 -16 24 -52 33 -63 15z"/>
<path d="M1404 847 c-3 -8 -4 -32 -2 -53 2 -32 7 -40 26 -42 22 -3 23 -1 20
50 -2 41 -7 54 -21 56 -9 2 -20 -3 -23 -11z"/>
<path d="M2610 1481 l0 -451 44 0 45 0 3 213 3 214 30 49 c45 71 110 109 191
109 77 0 108 -20 143 -90 24 -46 25 -60 29 -272 l5 -223 38 0 39 0 0 193 c0
197 -10 299 -35 346 -74 144 -285 163 -405 37 l-35 -37 -5 178 -5 178 -42 3
-43 3 0 -450z"/>
<path d="M3555 1693 c-227 -82 -300 -372 -139 -552 26 -29 69 -62 102 -78 49
-24 69 -28 138 -27 68 0 91 5 138 28 30 15 71 46 91 68 l35 42 0 -72 0 -72 41
0 40 0 -3 218 c-3 198 -5 221 -25 264 -28 61 -104 137 -168 167 -68 33 -181
39 -250 14z m229 -101 c27 -15 63 -46 80 -70 29 -42 31 -49 31 -137 0 -92 0
-94 -40 -151 -25 -36 -59 -70 -89 -89 -43 -26 -58 -30 -116 -29 -76 1 -110 16
-161 71 -76 80 -97 175 -60 273 55 147 217 207 355 132z"/>
<path d="M5880 1694 c-87 -31 -151 -90 -201 -184 -20 -38 -24 -59 -24 -140 0
-85 3 -101 29 -153 35 -68 98 -130 164 -160 37 -17 66 -22 137 -22 78 0 97 4
147 28 72 35 140 110 168 185 28 72 24 193 -7 262 -30 66 -96 135 -159 166
-71 35 -185 43 -254 18z m217 -96 c91 -42 152 -157 140 -260 -16 -136 -118
-227 -253 -228 -161 0 -278 150 -245 312 34 164 206 249 358 176z"/>
<path d="M4314 1670 c-80 -41 -139 -117 -168 -221 -13 -44 -16 -94 -14 -235
l3 -179 41 -3 42 -3 4 208 c3 188 6 212 25 248 42 80 116 137 157 122 15 -6
62 60 52 71 -3 3 -27 7 -53 9 -35 3 -59 -2 -89 -17z"/>
<path d="M4692 1669 c-23 -12 -60 -42 -82 -67 -63 -71 -72 -115 -78 -359 l-4
-213 40 0 39 0 5 213 c5 226 13 263 61 315 73 79 204 67 266 -24 33 -48 40
-99 40 -316 l1 -188 39 0 39 0 4 203 c3 140 9 213 19 239 56 146 250 187 316
66 16 -29 18 -65 21 -270 l4 -238 39 0 40 0 -3 248 c-3 243 -3 249 -29 297
-18 35 -39 59 -74 80 -44 27 -56 30 -134 30 -77 0 -91 -3 -135 -29 -28 -17
-60 -48 -76 -72 l-26 -42 -19 35 c-26 47 -77 90 -122 102 -63 18 -143 13 -191
-10z"/>
<path d="M6656 1675 c-47 -16 -103 -61 -133 -104 -34 -51 -43 -118 -43 -336
l0 -205 39 0 38 0 5 218 c5 250 12 275 86 327 40 27 51 30 121 30 89 -1 133
-20 166 -75 18 -32 20 -55 23 -267 l3 -233 40 0 41 0 -4 243 c-3 205 -6 248
-21 282 -41 92 -118 135 -242 134 -44 0 -97 -6 -119 -14z"/>
<path d="M7160 1682 c0 -5 54 -130 121 -278 66 -148 125 -278 129 -290 6 -15
-7 -55 -51 -154 -32 -74 -59 -138 -59 -143 0 -4 19 -7 42 -5 l42 3 191 435
191 435 -39 3 c-22 2 -43 0 -47 -5 -4 -4 -54 -115 -111 -245 -56 -131 -105
-235 -108 -233 -2 3 -53 112 -111 243 l-107 237 -41 3 c-23 2 -42 -1 -42 -6z"/>
</g>
</svg>
