<?xml version="1.0" standalone="no"?>
<!DOCTYPE svg PUBLIC "-//W3C//DTD SVG 20010904//EN"
 "http://www.w3.org/TR/2001/REC-SVG-20010904/DTD/svg10.dtd">
<svg version="1.0" xmlns="http://www.w3.org/2000/svg"
 width="830.000000pt" height="278.000000pt" viewBox="0 0 830.000000 278.000000"
 preserveAspectRatio="xMidYMid meet">

<g transform="translate(0.000000,278.000000) scale(0.100000,-0.100000)"
fill="#000000" stroke="none">
<path d="M5780 1585 l0 -505 45 0 45 0 0 505 0 505 -45 0 -45 0 0 -505z"/>
<path d="M502 1894 c-51 -35 -52 -45 -52 -456 0 -362 1 -385 20 -415 10 -17
28 -37 39 -43 13 -7 104 -9 267 -8 l246 3 91 157 c69 120 98 160 119 169 55
23 75 3 174 -169 l91 -157 248 -3 247 -2 34 36 34 35 0 401 0 400 -34 34 -34
34 -734 0 c-649 0 -736 -2 -756 -16z m451 -335 c47 -13 106 -63 123 -106 27
-64 7 -162 -42 -205 -53 -47 -135 -59 -203 -32 -60 24 -111 102 -111 167 1 71
66 159 128 173 15 3 32 7 37 9 18 6 29 5 68 -6z m751 -17 c86 -50 118 -150 76
-237 -59 -122 -230 -140 -309 -33 -56 76 -54 160 7 228 62 68 152 85 226 42z"/>
<path d="M985 1339 c-4 -11 -22 -28 -41 -37 -29 -14 -40 -14 -67 -4 -48 19
-52 19 -52 -3 0 -29 64 -49 115 -35 39 10 90 59 90 86 0 22 -38 17 -45 -7z"/>
<path d="M1684 1324 c-34 -38 -62 -43 -108 -19 -15 8 -32 12 -37 9 -21 -13 -6
-33 35 -49 55 -21 103 -9 141 36 50 60 21 81 -31 23z"/>
<path d="M3342 1822 c-140 -45 -252 -206 -252 -362 0 -141 88 -288 208 -347
80 -39 204 -44 303 -13 79 26 157 88 196 158 l22 39 -40 19 c-40 18 -41 18
-52 -2 -5 -10 -31 -40 -56 -65 -116 -116 -293 -117 -402 -2 -48 49 -69 92 -76
154 l-6 49 328 0 328 0 -6 53 c-16 154 -116 279 -257 321 -68 20 -170 20 -238
-2z m221 -88 c79 -27 146 -98 172 -181 l6 -23 -271 0 -272 0 7 28 c11 44 53
109 89 137 71 54 179 70 269 39z"/>
<path d="M5120 1826 c-99 -28 -189 -94 -226 -168 -50 -99 -54 -136 -54 -505
l0 -343 50 0 50 0 0 201 0 202 44 -41 c86 -79 186 -111 296 -93 126 20 234
102 286 214 26 56 29 72 29 167 0 96 -2 110 -28 160 -36 68 -114 150 -171 179
-80 40 -191 50 -276 27z m202 -96 c61 -23 124 -82 159 -150 19 -37 24 -60 23
-125 0 -95 -27 -159 -93 -218 -59 -53 -98 -70 -177 -75 -61 -4 -80 -1 -125 20
-114 52 -169 131 -177 253 -13 217 190 370 390 295z"/>
<path d="M6296 1823 c-131 -40 -232 -161 -255 -305 -36 -221 119 -422 335
-436 122 -8 219 29 288 110 l36 42 0 -83 0 -82 48 3 47 3 3 170 c3 198 -9 308
-42 380 -25 55 -108 145 -157 171 -88 45 -210 56 -303 27z m234 -102 c101 -52
141 -116 148 -237 4 -72 2 -86 -22 -132 -58 -115 -136 -172 -247 -180 -82 -6
-124 12 -196 84 -63 63 -88 133 -81 229 16 196 230 323 398 236z"/>
<path d="M4219 1804 c-54 -16 -133 -82 -158 -133 -33 -65 -41 -136 -41 -366
l0 -225 45 0 45 0 0 173 c0 194 13 335 35 378 37 70 152 111 258 91 70 -13
103 -34 132 -83 18 -31 20 -55 23 -296 l3 -263 45 0 44 0 0 258 c-1 219 -3
265 -18 308 -25 71 -58 108 -126 144 -54 27 -68 30 -150 29 -50 0 -112 -7
-137 -15z"/>
<path d="M7051 1484 l150 -337 -45 -101 c-25 -56 -56 -127 -71 -159 l-25 -58
51 3 50 3 215 489 c118 269 214 491 214 493 0 1 -22 3 -49 3 l-49 0 -118 -275
c-65 -151 -121 -275 -124 -275 -3 0 -59 123 -126 273 l-120 272 -51 3 -51 3
149 -337z"/>
<path d="M2480 1770 l0 -40 185 -2 185 -3 -200 -318 c-110 -175 -200 -320
-200 -323 0 -2 124 -4 275 -4 l275 0 0 40 0 40 -195 0 c-107 0 -195 3 -195 6
0 4 87 144 194 313 106 168 196 312 200 319 6 9 -49 12 -258 12 l-266 0 0 -40z"/>
</g>
</svg>
