<?xml version="1.0" standalone="no"?>
<!DOCTYPE svg PUBLIC "-//W3C//DTD SVG 20010904//EN"
 "http://www.w3.org/TR/2001/REC-SVG-20010904/DTD/svg10.dtd">
<svg version="1.0" xmlns="http://www.w3.org/2000/svg"
 width="810.000000pt" height="308.000000pt" viewBox="0 0 810.000000 308.000000"
 preserveAspectRatio="xMidYMid meet">

<g transform="translate(0.000000,308.000000) scale(0.100000,-0.100000)"
fill="#000000" stroke="none">
<path d="M6389 2172 c-73 -65 -14 -185 81 -166 90 19 111 137 30 179 -43 22
-76 18 -111 -13z"/>
<path d="M6750 1530 l0 -650 60 0 60 0 -2 648 -3 647 -57 3 -58 3 0 -651z"/>
<path d="M624 2136 c-3 -7 -4 -35 -2 -62 l3 -49 143 -3 142 -3 0 -569 0 -570
65 0 65 0 0 570 0 570 140 0 140 0 0 65 0 65 -345 0 c-284 0 -347 -2 -351 -14z"/>
<path d="M2203 1845 c-86 -23 -154 -64 -219 -130 -190 -193 -191 -494 -4 -689
68 -71 129 -108 215 -131 176 -45 386 21 470 148 9 15 20 27 24 27 3 0 6 -44
6 -97 l0 -98 63 -3 62 -3 0 275 c0 301 -5 347 -54 446 -98 203 -344 314 -563
255z m267 -136 c140 -66 209 -181 210 -352 0 -63 -65 -193 -131 -259 -71 -71
-117 -91 -226 -96 -81 -4 -98 -2 -140 19 -74 35 -165 132 -192 204 -44 116
-27 261 43 359 71 101 174 155 296 156 63 0 85 -5 140 -31z"/>
<path d="M4494 1845 c-84 -18 -152 -55 -221 -119 -107 -99 -153 -209 -153
-361 0 -146 40 -244 140 -346 181 -184 470 -193 654 -19 29 27 56 50 59 50 4
0 7 -117 7 -260 l0 -260 55 0 55 0 0 463 c0 444 -1 466 -21 528 -46 141 -110
219 -229 279 -111 56 -227 71 -346 45z m281 -142 c73 -38 138 -105 173 -181
24 -50 27 -69 27 -162 0 -99 -2 -110 -33 -172 -39 -79 -92 -130 -181 -171 -58
-28 -77 -32 -151 -32 -72 0 -94 4 -142 27 -80 37 -152 107 -191 187 -30 61
-32 73 -32 166 0 87 3 107 26 156 45 96 124 167 227 206 24 9 68 12 127 10 77
-3 99 -8 150 -34z"/>
<path d="M1630 1831 c-111 -34 -210 -121 -261 -229 -55 -115 -59 -142 -59
-444 l0 -278 60 0 60 0 0 218 c0 354 16 431 108 533 54 60 88 79 141 79 37 0
43 4 66 40 35 55 34 61 -5 75 -40 15 -74 17 -110 6z"/>
<path d="M3368 1825 c-77 -16 -95 -24 -166 -77 -66 -49 -98 -100 -122 -194
-22 -86 -26 -160 -22 -456 l2 -218 59 0 59 0 5 303 c5 359 10 389 80 453 64
57 134 78 246 72 136 -8 194 -47 227 -152 13 -40 17 -117 21 -363 l6 -313 54
0 54 0 -3 343 c-3 333 -4 344 -27 402 -32 80 -107 154 -186 185 -74 28 -194
35 -287 15z"/>
<path d="M5320 1582 c0 -391 19 -490 112 -588 73 -77 146 -107 274 -112 214
-9 348 74 407 252 19 55 21 92 25 384 l4 322 -60 0 -61 0 -4 -317 c-2 -218 -8
-330 -16 -357 -19 -58 -104 -139 -166 -157 -76 -22 -181 -17 -235 10 -91 47
-132 105 -150 212 -5 35 -10 187 -10 337 l0 272 -60 0 -60 0 0 -258z"/>
<path d="M6396 1813 c-3 -4 -6 -215 -6 -470 l0 -463 60 0 60 0 0 468 0 468
-54 2 c-29 0 -56 -2 -60 -5z"/>
</g>
</svg>
